<svg width="394" height="35" viewBox="0 0 394 35" fill="none" xmlns="http://www.w3.org/2000/svg">
<g clip-path="url(#clip0_11_452)">
<path d="M0 1.8897H13.8046V35H15.7066V0H0V1.8897Z" fill="#F3EEE7"/>
<path d="M17.6136 1.8897H29.5112V0H15.7065L17.6136 1.8897Z" fill="#F3EEE7"/>
<path d="M53.792 0V35H55.694V16.5552V0H53.792Z" fill="#F3EEE7"/>
<path d="M81.3503 16.5552H55.6941L57.5961 18.4448H81.3503V35H83.2574V0H81.3503V16.5552Z" fill="#F3EEE7"/>
<path d="M135.572 18.4449V16.5552H112.293L114.195 18.4449H135.572Z" fill="#F3EEE7"/>
<path d="M136.998 35.0002V33.1055H112.293L114.195 35.0002H136.998Z" fill="#F3EEE7"/>
<path d="M180.048 21.0406C180.217 21.0254 180.391 21.0051 180.555 20.9797C180.795 20.9492 181.035 20.9086 181.27 20.8578C181.567 20.8019 181.863 20.7308 182.145 20.6444C182.226 20.6241 182.313 20.5987 182.395 20.5682C182.656 20.4869 182.917 20.3955 183.167 20.2888C183.566 20.1364 183.955 19.9485 184.338 19.7402C185.969 18.8411 187.263 17.6067 188.214 16.0573C188.275 15.9608 188.331 15.8541 188.387 15.7576C188.556 15.463 188.704 15.1582 188.837 14.8534C188.924 14.6502 189.006 14.4419 189.078 14.2286C189.297 13.5987 189.456 12.9434 189.548 12.2678C189.604 11.8157 189.635 11.3534 189.635 10.881C189.635 10.4086 189.604 9.92598 189.548 9.46371C189.441 8.65094 189.246 7.86357 188.965 7.09652C188.883 6.873 188.791 6.65457 188.689 6.44122C188.592 6.22279 188.49 6.00943 188.377 5.80116C188.321 5.69448 188.26 5.59289 188.203 5.48621C187.666 4.54644 187.027 3.71843 186.276 2.99202C186.235 2.95138 186.189 2.91074 186.143 2.86502C186.061 2.78882 185.974 2.71771 185.892 2.64659C185.672 2.44848 185.442 2.2656 185.207 2.08781C184.926 1.87954 184.629 1.67634 184.328 1.49347C183.407 0.939768 182.441 0.533382 181.424 0.28955C181.214 0.238752 181.01 0.193033 180.795 0.157475C180.759 0.147315 180.728 0.147315 180.698 0.137155C180.493 0.101597 180.289 0.0761974 180.084 0.0558781C179.721 0.0203193 179.348 0 178.975 0H163.171V35H165.073V19.2017L166.975 21.0914H177.783L187.493 34.9949H189.778L180.033 21.0406H180.048ZM165.088 19.2017V1.8897H178.985C180.575 1.8897 182.032 2.30116 183.367 3.12409C184.701 3.94194 185.759 5.04427 186.537 6.43106C187.314 7.81785 187.702 9.30116 187.702 10.8759C187.702 12.4507 187.319 13.7866 186.562 15.0617C185.8 16.3367 184.757 17.3527 183.438 18.0893C182.124 18.8309 180.641 19.2017 178.985 19.2017H165.088Z" fill="#F3EEE7"/>
<path d="M227.393 0H225.113C225.082 0.0609579 225.047 0.121916 225.016 0.187954L210.071 34.9949H212.213L226.253 2.49927L227.393 0Z" fill="#F3EEE7"/>
<path d="M226.248 2.50439L240.058 35H242.246L228.472 2.50439H226.248Z" fill="#F3EEE7"/>
<path d="M268.429 35.0002H290.276V33.1055H266.522L268.429 35.0002Z" fill="#F3EEE7"/>
<path d="M338.833 20.5733C338.833 22.8135 338.27 24.8861 337.14 26.791C336.015 28.701 334.482 30.2148 332.549 31.3324C330.611 32.4499 328.505 33.0087 326.219 33.0087C323.934 33.0087 321.822 32.4499 319.89 31.3324C317.952 30.2148 316.423 28.701 315.298 26.791C314.173 24.8861 313.611 22.8084 313.611 20.5733V0H311.709V20.5733C311.709 23.1894 312.358 25.5922 313.662 27.7866C314.961 29.9761 316.725 31.7134 318.944 32.9884C321.163 34.2634 323.591 34.9035 326.224 34.9035C328.857 34.9035 331.286 34.2634 333.51 32.9884C335.729 31.7134 337.493 29.9761 338.792 27.7866C340.09 25.5972 340.745 23.1894 340.745 20.5733V0H338.843V20.5733H338.833Z" fill="#F3EEE7"/>
<path d="M379.505 19.1357L391.525 35H394L381.98 19.1357H379.505Z" fill="#F3EEE7"/>
<path d="M394 0H391.525L379.505 15.8694L367.485 0H365.01L378.268 17.5L365.01 35H367.485L379.505 19.1357L380.742 17.5L394 0Z" fill="#F3EEE7"/>
<path d="M111.72 0H110.391V1.27504V33.7199V35H111.72H112.293V33.1052V16.5552V1.8897H136.998V0H112.293H111.72Z" fill="#F3EEE7"/>
<path d="M264.62 0V33.7199V35H265.954H266.522V33.1052V0H264.62Z" fill="#F3EEE7"/>
</g>
<defs>
<clipPath id="clip0_11_452">
<rect width="394" height="35" fill="white"/>
</clipPath>
</defs>
</svg>
