<svg width="258" height="23" viewBox="0 0 258 23" fill="none" xmlns="http://www.w3.org/2000/svg">
<g clip-path="url(#clip0_2_842)">
<path d="M0.5 1.2418H9.50455V23H10.7452V0H0.5V1.2418Z" fill="#2C2F44"/>
<path d="M11.9891 1.2418H19.7497V0H10.7451L11.9891 1.2418Z" fill="#2C2F44"/>
<path d="M35.5876 0V23H36.8283V10.8791V0H35.5876Z" fill="#2C2F44"/>
<path d="M53.5635 10.8791H36.8284L38.069 12.1209H53.5635V23H54.8075V0H53.5635V10.8791Z" fill="#2C2F44"/>
<path d="M88.9314 12.121V10.8792H73.7471L74.9877 12.121H88.9314Z" fill="#2C2F44"/>
<path d="M89.8619 23V21.7549H73.7471L74.9877 23H89.8619Z" fill="#2C2F44"/>
<path d="M117.943 13.8267C118.053 13.8167 118.166 13.8033 118.273 13.7866C118.43 13.7666 118.586 13.7399 118.74 13.7065C118.933 13.6698 119.127 13.6231 119.31 13.5663C119.363 13.553 119.42 13.5363 119.474 13.5163C119.644 13.4628 119.814 13.4028 119.977 13.3327C120.237 13.2325 120.491 13.109 120.741 12.9721C121.805 12.3813 122.648 11.5701 123.269 10.552C123.309 10.4885 123.345 10.4184 123.382 10.355C123.492 10.1614 123.589 9.9611 123.676 9.76081C123.732 9.62729 123.786 9.49042 123.832 9.35022C123.976 8.93628 124.079 8.50566 124.139 8.06168C124.176 7.76459 124.196 7.46081 124.196 7.15036C124.196 6.83991 124.176 6.52279 124.139 6.21901C124.069 5.68491 123.942 5.16749 123.759 4.66343C123.706 4.51655 123.646 4.373 123.579 4.2328C123.516 4.08926 123.449 3.94906 123.375 3.81219C123.339 3.74209 123.299 3.67533 123.262 3.60523C122.912 2.98766 122.495 2.44354 122.005 1.96618C121.978 1.93948 121.948 1.91277 121.918 1.88273C121.865 1.83266 121.808 1.78592 121.755 1.73919C121.611 1.609 121.461 1.48882 121.308 1.37199C121.124 1.23512 120.931 1.1016 120.734 0.981422C120.134 0.617562 119.504 0.350508 118.84 0.190276C118.703 0.156894 118.57 0.126851 118.43 0.103483C118.406 0.096807 118.386 0.096807 118.366 0.0901306C118.233 0.0667634 118.099 0.0500726 117.966 0.0367199C117.729 0.0133527 117.486 0 117.242 0H106.934V23H108.174V12.6183L109.415 13.8601H116.465L122.799 22.9967H124.289L117.933 13.8267H117.943ZM108.184 12.6183V1.2418H117.249C118.286 1.2418 119.237 1.51219 120.107 2.05298C120.978 2.59042 121.668 3.3148 122.175 4.22612C122.682 5.13745 122.935 6.11219 122.935 7.14702C122.935 8.18186 122.685 9.0598 122.192 9.89768C121.695 10.7356 121.014 11.4032 120.154 11.8872C119.297 12.3746 118.33 12.6183 117.249 12.6183H108.184Z" fill="#2C2F44"/>
<path d="M148.825 0H147.338C147.318 0.0400581 147.294 0.0801161 147.274 0.123512L137.526 22.9967H138.923L148.081 1.64238L148.825 0Z" fill="#2C2F44"/>
<path d="M148.078 1.64575L157.086 23H158.513L149.529 1.64575H148.078Z" fill="#2C2F44"/>
<path d="M175.592 23H189.842V21.7549H174.348L175.592 23Z" fill="#2C2F44"/>
<path d="M221.515 13.5196C221.515 14.9917 221.148 16.3537 220.411 17.6055C219.677 18.8607 218.677 19.8554 217.416 20.5898C216.152 21.3242 214.778 21.6914 213.288 21.6914C211.797 21.6914 210.419 21.3242 209.159 20.5898C207.895 19.8554 206.898 18.8607 206.164 17.6055C205.43 16.3537 205.063 14.9884 205.063 13.5196V0H203.823V13.5196C203.823 15.2388 204.246 16.8177 205.097 18.2598C205.944 19.6985 207.094 20.8402 208.542 21.6781C209.989 22.516 211.573 22.9366 213.291 22.9366C215.008 22.9366 216.593 22.516 218.043 21.6781C219.491 20.8402 220.641 19.6985 221.488 18.2598C222.335 16.821 222.762 15.2388 222.762 13.5196V0H221.522V13.5196H221.515Z" fill="#2C2F44"/>
<path d="M248.045 12.575L255.886 23.0001H257.5L249.659 12.575H248.045Z" fill="#2C2F44"/>
<path d="M257.5 0H255.886L248.045 10.4284L240.204 0H238.59L247.238 11.5L238.59 23H240.204L248.045 12.5749L248.852 11.5L257.5 0Z" fill="#2C2F44"/>
<path d="M73.3734 0H72.5063V0.837881V22.1588V23H73.3734H73.747V21.7549V10.8791V1.2418H89.8618V0H73.747H73.3734Z" fill="#2C2F44"/>
<path d="M173.107 0V22.1588V23H173.978H174.348V21.7549V0H173.107Z" fill="#2C2F44"/>
</g>
<defs>
<clipPath id="clip0_2_842">
<rect width="257" height="23" fill="white" transform="translate(0.5)"/>
</clipPath>
</defs>
</svg>
