<svg width="30" height="30" viewBox="0 0 30 30" fill="none" xmlns="http://www.w3.org/2000/svg">
<path d="M30 14.55V13.5C30 10.8 30 10.2 29.85 8.85C29.7 6.45 29.1 4.2 27.45 2.55C25.8 0.9 23.55 0.3 21.15 0.15C19.8 0.15 19.2 0 16.5 0H13.35C10.65 0 10.05 2.12342e-07 8.7 0.15C6.3 0.15 4.2 0.75 2.55 2.4C0.75 4.2 0.15 6.3 0.15 8.7C0.15 10.05 0 10.65 0 13.35V16.5C0 19.2 -1.45286e-07 19.8 0.15 21.15C0.3 23.55 0.9 25.8 2.55 27.45C4.2 29.1 6.3 29.7 8.85 29.85C10.2 29.85 10.8 30 13.5 30H14.55H15H15.45H16.5C19.2 30 19.8 30 21.15 29.85C23.55 29.7 25.8 29.1 27.45 27.45C29.1 25.8 29.7 23.55 29.85 21.15C29.85 19.8 30 19.2 30 16.5V15.45C30 15.3 30 15.15 30 15V14.55ZM27.15 21C27 22.65 26.7 24.3 25.5 25.5C24.3 26.7 22.65 27 21 27.15C19.35 27.15 18.9 27.3 15 27.3C10.95 27.3 10.5 27.3 9 27.15C7.35 27 5.7 26.7 4.5 25.5C3.3 24.3 3 22.65 2.85 21C2.7 19.35 2.7 18.9 2.7 15C2.7 10.95 2.7 10.5 2.85 9C3 7.35 3.3 5.7 4.5 4.5C5.7 3.3 7.35 3 9 2.85C10.65 2.85 11.1 2.7 15 2.7C19.05 2.7 19.5 2.7 21 2.85C22.65 3 24.3 3.3 25.5 4.5C26.7 5.7 27 7.35 27.15 9C27.15 10.65 27.3 11.1 27.3 15C27.3 18.9 27.3 19.35 27.15 21Z" fill="#F3EEE7"/>
<path d="M15.0001 7.19971C10.8001 7.19971 7.3501 10.6497 7.3501 14.8497C7.3501 19.0497 10.8001 22.4997 15.0001 22.4997C19.2001 22.4997 22.6501 19.0497 22.6501 14.8497C22.6501 10.6497 19.2001 7.19971 15.0001 7.19971ZM15.0001 19.9497C12.3001 19.9497 10.0501 17.6997 10.0501 14.9997C10.0501 12.2997 12.3001 10.0497 15.0001 10.0497C17.7001 10.0497 19.9501 12.2997 19.9501 14.9997C19.9501 17.6997 17.7001 19.9497 15.0001 19.9497Z" fill="#F3EEE7"/>
<path d="M22.9499 5.09961C21.8999 5.09961 21.1499 5.84961 21.1499 6.89961C21.1499 7.94961 21.8999 8.69961 22.9499 8.69961C23.9999 8.69961 24.7499 7.94961 24.7499 6.89961C24.7499 5.99961 23.9999 5.09961 22.9499 5.09961Z" fill="#F3EEE7"/>
</svg>
