<svg width="31" height="30" viewBox="0 0 31 30" fill="none" xmlns="http://www.w3.org/2000/svg">
<path d="M26.3983 4.35937C23.5925 1.54687 19.8559 0 15.8849 0C7.68848 0 1.01883 6.66964 1.01883 14.8661C1.01883 17.4844 1.70187 20.0424 3.00098 22.2991L0.891602 30L8.7733 27.9308C10.9429 29.1161 13.3871 29.7388 15.8782 29.7388H15.8849C24.0746 29.7388 30.8916 23.0692 30.8916 14.8728C30.8916 10.9018 29.2041 7.17187 26.3983 4.35937ZM15.8849 27.2344C13.6617 27.2344 11.4854 26.6384 9.59026 25.5134L9.1416 25.2455L4.46749 26.471L5.71303 21.9107L5.41839 21.442C4.17955 19.4732 3.52999 17.2031 3.52999 14.8661C3.52999 8.0558 9.07464 2.51116 15.8916 2.51116C19.1929 2.51116 22.2934 3.79687 24.6237 6.13393C26.9541 8.47098 28.3871 11.5714 28.3804 14.8728C28.3804 21.6897 22.6952 27.2344 15.8849 27.2344ZM22.6617 17.9799C22.2934 17.7924 20.4653 16.8951 20.1237 16.7746C19.7822 16.6473 19.5345 16.5871 19.2867 16.9621C19.0389 17.3371 18.3291 18.1674 18.1081 18.4219C17.8938 18.6696 17.6729 18.7031 17.3045 18.5156C15.1215 17.4241 13.6885 16.567 12.2487 14.096C11.867 13.4397 12.6304 13.4866 13.3403 12.067C13.4608 11.8192 13.4005 11.6049 13.3068 11.4174C13.213 11.2299 12.4697 9.40179 12.1617 8.65848C11.8604 7.93527 11.5523 8.03571 11.3246 8.02232C11.1104 8.00893 10.8626 8.00893 10.6148 8.00893C10.367 8.00893 9.96526 8.10268 9.62374 8.47098C9.28223 8.84598 8.32464 9.7433 8.32464 11.5714C8.32464 13.3996 9.65723 15.1674 9.83803 15.4152C10.0255 15.6629 12.4563 19.4129 16.1862 21.0268C18.5434 22.0446 19.4675 22.1317 20.6461 21.9576C21.3626 21.8504 22.8425 21.0603 23.1505 20.1897C23.4586 19.3192 23.4586 18.5759 23.3648 18.4219C23.2778 18.2545 23.03 18.1607 22.6617 17.9799Z" fill="#F3EEE7"/>
</svg>
