<svg width="37" height="25" viewBox="0 0 37 25" fill="none" xmlns="http://www.w3.org/2000/svg">
<path d="M1.24994 19.5292C1.24994 19.5292 1.60827 22.0375 2.68327 23.1125C4.1166 24.5458 5.90827 24.5458 6.62494 24.5458C9.4916 24.9042 18.8083 24.9042 18.8083 24.9042C18.8083 24.9042 26.3333 24.9042 31.3499 24.5458C32.0666 24.3667 33.4999 24.3667 34.9333 23.1125C36.0083 22.0375 36.3666 19.5292 36.3666 19.5292C36.3666 19.5292 36.7249 16.6625 36.7249 13.7958V11.1083C36.7249 8.24167 36.3666 5.375 36.3666 5.375C36.3666 5.375 36.0083 2.86667 34.9333 1.79167C33.4999 0.358333 32.0666 0.358334 31.3499 0.358334C26.3333 5.0726e-07 18.8083 0 18.8083 0C18.8083 0 11.2833 5.0726e-07 6.2666 0.358334C5.54993 0.537501 4.1166 0.5375 2.68327 1.79167C1.60827 2.86667 1.24994 5.375 1.24994 5.375C1.24994 5.375 0.891602 8.24167 0.891602 11.1083V13.7958C0.891602 16.4833 1.24994 19.5292 1.24994 19.5292ZM15.0458 6.9875L24.7208 12.0042L15.0458 17.0208V6.9875Z" fill="#F3EEE7"/>
</svg>
